<svg xmlns="http://www.w3.org/2000/svg" xmlns:xlink="http://www.w3.org/1999/xlink" width="536.146" height="362.025"><style>.B{fill:#fff}.C{fill:none}.D{opacity:.2}.E{stroke-linecap:round}.F{stroke-linejoin:round}.G{fill:#3e3e3e}.H{stroke-miterlimit:10}.I{fill:#d3d3d3}.J{opacity:.35}.K{opacity:.5}.L{fill:#0d8dc1}.M{fill:#926200}.N{stroke-width:1.535}</style><defs><clipPath id="A"><path d="M334 84.429L350.875 73.4l28.9 16.654-16.875 11.14z" transform="translate(-334 -73.4)"/></clipPath><linearGradient id="B" x1="9.222" y1="17.915" x2="10.136" y2="17.915"><stop offset=".005" stop-color="#ee6a27"/><stop offset="1" stop-color="#f8c700"/></linearGradient><clipPath id="C"><path d="M336.9 262.247l26.911-17.647 36.4 21.066-26.8 17.537z" transform="translate(-336.9 -244.6)"/></clipPath><linearGradient id="D" x1=".311" y1="-.109" x2=".804" y2="1.035"><stop offset="0" stop-color="#f26a27"/><stop offset="1" stop-color="#fccb00"/></linearGradient><clipPath id="E"><path d="M196.788 7.8l17.1 9.375-25.588 15.11-17.1-9.375z" transform="translate(-171.2 -7.8)"/></clipPath><linearGradient id="F" x1="26.075" y1="-10.61" x2="26.066" y2="-10.625"><stop offset="0" stop-color="#2a5776"/><stop offset="1" stop-color="#3480bf"/></linearGradient><linearGradient id="G" x1="39.704" y1="-14.112" x2="39.684" y2="-14.112" xlink:href="#F"/><clipPath id="H"><path d="M90.8 220.507l21.4-14.007 27.353 15.882-21.4 14.007z" transform="translate(-90.8 -206.5)"/></clipPath><path id="I" d="M392.448 116.648l-36.617-21.286v9.154a3.29 3.29 0 0 0 1.654 2.868l32.1 18.529a5.383 5.383 0 0 0 5.735 0l31.433-18.309a4.55 4.55 0 0 0 2.316-4.081v-8.051z"/><path id="J" d="M392.448 116.649v10.147a5.344 5.344 0 0 0 2.868-.772l31.432-18.309a4.55 4.55 0 0 0 2.316-4.081v-8.051l-36.616 21.066z"/><path id="K" d="M356.934 97.016l33.308 19.081a4.49 4.49 0 0 0 4.412 0l33.308-18.75a2.28 2.28 0 0 0 0-3.971l-30.881-18.087a9.265 9.265 0 0 0-9.265 0l-30.882 17.757a2.28 2.28 0 0 0 0 3.971z"/><path id="L" d="M37.968 192.75l-8.493 4.963c-.551.331-.551.772 0 .993l10.809 5.956a2.26 2.26 0 0 0 1.875-.11l8.493-4.963"/><path id="M" d="M40.946 177.088l17.1 9.485c1.1.551.993 1.544-.11 2.206l-15.441 9.044a4.223 4.223 0 0 1-3.971.11l-17.1-9.375c-1.1-.551-.993-1.544.11-2.206l15.441-9.044a4.236 4.236 0 0 1 3.971-.22z"/><path id="N" d="M287.781 190.435l-2.426-1.434-2.426 1.434 2.537 1.324z"/><path id="O" d="M284.693 192.31l-2.537-1.434-2.316 1.434 2.426 1.324z"/><path id="P" d="M289.105 194.957l-2.426-1.324-2.426 1.324 2.537 1.434z"/><path id="Q" d="M278.186 185.251l-2.537-1.324-2.316 1.324 2.426 1.434z"/><path id="R" d="M262.083 191.097l-2.427-1.434-2.426 1.434 2.537 1.324z"/></defs><path stroke="#c48335" d="M394.103 105.84l-116.138 68.381" class="C H"/><path d="M382.743 122.053l14.117 7.831a9.472 9.472 0 0 0 9.375 0l33.86-20.073a4.345 4.345 0 0 0 .11-7.5l-29.006-17.758-28.456 21.617z" class="D"/><use xlink:href="#I" fill="#ff992b"/><use xlink:href="#J" fill="#c48335"/><use xlink:href="#K" class="B"/><g clip-path="url(#A)" transform="translate(368.405 80.914)"><path d="M5.846 7.275c-.221-.11-.662 0-.551.221.441 4.522 3.64 8.713 8.934 11.8.029-.001.058.011.078.032s.032.049.032.078h.11a37.91 37.91 0 0 0 15.22 4.522c.772 0 .993-.441.551-.662-.11 0-.221-.11-.331-.11a46.393 46.393 0 0 1-13.125-4.963 25.16 25.16 0 0 1-10.7-10.809c-.11 0-.11 0-.221-.11m27.463 15.22a10.458 10.458 0 0 0-4.081-1.323c-.441 0-.662.11-.441.331h.11c.662.331 1.765.772 2.537 1.213.662.331 1.1.772 1.1.993-.11.551-3.088 1.434-4.412 1.875-.221.11-.331.221-.11.221.11 0 .221.11.331.11 3.088.11 6.507-1.544 6.507-2.1 0-.221-.551-.772-1.544-1.324" fill="#ff992b"/><path d="M26.912 6.066l-.993-.551c-.11-.11-.331 0-.441 0l-.331.331-4.963 6.066a.405.405 0 0 0-.11.331.237.237 0 0 0 .221.221h.11l.772.441h.11c.11.11.221.11.441.11.186-.026.37-.063.551-.11l7.5-3.088-4.522 4.853c-.11.11-.221.221-.221.331a.237.237 0 0 0 .221.221h.11l.882.441c.11.11.221.11.441.11a.824.824 0 0 0 .551-.11l9.6-3.419c.11 0 .221-.11.331-.11l.221-.11h.11c.11-.11.11-.221 0-.221l-.882-.551c-.11-.11-.221-.11-.441-.11-.186.026-.37.063-.551.11l-7.941 3.2 4.743-4.963c.11-.11.221-.221.221-.331a.237.237 0 0 0-.221-.221h-.11l-.772-.441h-.11c-.11-.11-.221-.11-.441-.11a.824.824 0 0 0-.551.11l-7.72 3.2 4.632-4.963c.11-.11.11-.221.221-.331-.551-.221-.662-.221-.662-.331m14.779 8.272c-.029.001-.058-.011-.078-.032s-.032-.049-.032-.078h-.11a6.755 6.755 0 0 0-1.324-.551c-.468-.127-.949-.201-1.434-.221s-.962.014-1.434.11a3.68 3.68 0 0 0-1.324.551 1.846 1.846 0 0 0-.882 1.213 1.712 1.712 0 0 0 .551 1.544l.993 1.1a1.36 1.36 0 0 1 .441.882.563.563 0 0 1-.441.551 2.76 2.76 0 0 1-1.434.331 3.7 3.7 0 0 1-1.544-.551l-.11-.11a2.4 2.4 0 0 1-.993-.772 2.98 2.98 0 0 1-.772-.882c0-.11-.11-.11-.11-.221l-.11-.11c-.11-.11-.331-.11-.551.11l-.441.331a.4.4 0 0 0-.221.551c.196.342.459.642.772.882.4.383.844.717 1.324.993a6.52 6.52 0 0 0 1.544.662 7.5 7.5 0 0 0 1.654.221 7.28 7.28 0 0 0 1.544-.11 3.68 3.68 0 0 0 1.324-.551c.413-.253.725-.642.882-1.1a1.615 1.615 0 0 0-.662-1.434l-.993-1.1a2.26 2.26 0 0 1-.551-.993.955.955 0 0 1 .331-.662 2.35 2.35 0 0 1 1.323-.331 5.46 5.46 0 0 1 1.434.441l.11.11a3.35 3.35 0 0 1 1.434 1.324c0 .11.11.221.221.331s.331.11.551-.11l.441-.331c.11-.11.221-.11.221-.221a.405.405 0 0 0-.11-.331c-.11-.11-.11-.221-.221-.331s-.221-.331-.441-.441-.331-.331-.551-.441c.11 0-.11-.11-.221-.221M13.352 7.286c-.331-.221-.551-.441-.551-.772.032-.397.29-.74.662-.882a2.334 2.334 0 0 1 1.544-.441 3.656 3.656 0 0 1 1.654.441c.11 0 .11.11.221.11l.882.551c.221.221.551.441.772.662l-.441.221a3.3 3.3 0 0 1-.882.441 2.6 2.6 0 0 1-.882.221 7.28 7.28 0 0 1-1.544-.11 3.13 3.13 0 0 1-1.434-.441m8.492-4.412c-.11 0-.221-.11-.331-.11a11.13 11.13 0 0 0-1.654-.772 9.19 9.19 0 0 0-1.654-.441h-.441a.84.84 0 0 0-.441.221l-.441.331c-.221.11-.221.221-.11.331l.221.11c.11 0 .331.11.441.11a6.22 6.22 0 0 1 1.324.441 5.91 5.91 0 0 1 1.209.548c.11 0 .11.11.221.11.413.253.725.642.882 1.1-.158.52-.515.956-.993 1.213l-.662.441a5.492 5.492 0 0 0-.882-.772l-.993-.662c-.11 0-.11-.11-.221-.11a6.266 6.266 0 0 0-2.978-.772 4.86 4.86 0 0 0-2.868.772 2.08 2.08 0 0 0-1.1 1.544 1.766 1.766 0 0 0 1.1 1.434c.029-.001.058.011.078.032s.032.049.032.078h.11a6.98 6.98 0 0 0 4.081.772c-.11.221-.221.331-.221.551s-.11.331-.11.441 0 .221.11.221.221.11.331.11l.993.11a.668.668 0 0 0 .441-.11c.11 0 .11-.11.11-.221l.331-.662a4.8 4.8 0 0 1 .772-.662l3.088-1.985a2.95 2.95 0 0 0 1.544-1.985 2.283 2.283 0 0 0-1.324-1.765" fill="#242f3d"/></g><path d="M473.514 179.736l-55.921-30.662a14.669 14.669 0 0 0-14.448.221l-31.652 18.639" stroke="#c88723" stroke-width="1.219" class="C E F"/><path d="M480.021 199.474l13.235 7.39a8.98 8.98 0 0 0 8.823 0l31.985-18.97a4.087 4.087 0 0 0 .11-7.059l-27.463-16.761-26.8 20.294.11 15.11z" class="D"/><path d="M489.065 194.294l-34.522-20.073v8.6a3.25 3.25 0 0 0 1.654 2.757l30.22 17.536a5.276 5.276 0 0 0 5.4 0l29.669-17.316a4.45 4.45 0 0 0 2.206-3.86v-7.61l-34.632 19.963z" fill="#eba429"/><path d="M489.065 194.294v9.6a4.63 4.63 0 0 0 2.647-.772l29.669-17.316a4.45 4.45 0 0 0 2.206-3.86v-7.615l-34.522 19.963z" fill="#c88723"/><path d="M455.54 175.765l31.433 17.978a4.08 4.08 0 0 0 4.191 0l31.433-17.647a2.17 2.17 0 0 0 0-3.75l-29.228-16.985a8.774 8.774 0 0 0-8.713 0l-29.007 16.654a2.175 2.175 0 0 0-.11 3.75z" class="B"/><path d="M488.403 162.75c.441.331.552.772.221.993a1.53 1.53 0 0 1-1.544 0c-.551-.331-.551-.772-.221-.993a1.324 1.324 0 0 1 1.544 0zm-11.25 3.529a.59.59 0 0 0 .221.993 1.543 1.543 0 0 0 1.544 0 .59.59 0 0 0-.221-.993c-.44-.22-1.213-.33-1.54.001zm-2.978 2.426a.59.59 0 0 0 .221.993 1.543 1.543 0 0 0 1.544 0 .59.59 0 0 0-.221-.993 1.88 1.88 0 0 0-1.544.001zm.441-3.86a.59.59 0 0 0 .221.993 1.543 1.543 0 0 0 1.544 0 .59.59 0 0 0-.221-.993c-.441-.218-1.213-.33-1.544.001zm28.676 16.654c-3.97 3.309-11.691 3.309-17.206 0l-10.037-5.846c-.551-.331-.772-.772-.441-1.1s.993-.221 1.544.11l4.522 2.647a6.268 6.268 0 0 1-.772-3.86l-4.081-2.426c-.551-.331-.772-.772-.441-1.1a1.574 1.574 0 0 1 1.544.11l12.022 7.059 1.765-1.434-11.912-6.948c-.551-.331-.772-.772-.441-1.1a1.577 1.577 0 0 1 1.544.11l2.647 1.544a12.45 12.45 0 0 1 2.426-1.213l-6.618-3.86c-.551-.331-.772-.772-.441-1.1a1.577 1.577 0 0 1 1.544.11l7.39 4.3a15.94 15.94 0 0 1 5.625-.11l-4.191-2.426c-.551-.331-.772-.772-.441-1.1a1.577 1.577 0 0 1 1.544.11l9.706 5.735c5.845 3.309 7.169 8.6 3.2 11.8zm-2.868-5.073c-.485.578-1 1.131-1.544 1.654l3.309 1.875a4.682 4.682 0 0 0 1.1-1.875zm1.434-3.529a5.76 5.76 0 0 1-.772 2.316l2.316 1.434a4.91 4.91 0 0 0-1.545-3.75zm-3.2 2.537l-2.206-1.324-1.765 1.434 2.426 1.434a10.246 10.246 0 0 0 1.544-1.544zm.662-1.213a6.17 6.17 0 0 0 .551-2.757l-2.204 1.763 1.654.993zm-5.073-2.978l1.654.993 2.206-1.765a11.461 11.461 0 0 0-3.859.772zm-4.081-2.426l2.316 1.434a15.21 15.21 0 0 1 3.2-.882 13.47 13.47 0 0 0-5.515-.553zm-2.206.331a8.16 8.16 0 0 0-2.426 1.1l3.309 1.985c.662-.441 1.324-.882 2.1-1.324zm5.073 5.515l1.765-1.434-2.206-1.324a8.39 8.39 0 0 0-2.1 1.324zm-5.956 2.426a6.17 6.17 0 0 0-.551 2.757l2.206-1.765-1.654-.993zm-2.537 1.324a6.385 6.385 0 0 1 .772-2.316l-2.316-1.434a5.88 5.88 0 0 0 1.546 3.749zm7.61 1.654l-1.765-.993-2.206 1.765a13.35 13.35 0 0 0 3.978-.773zm1.765-.662a13.515 13.515 0 0 0 2.1-1.324l-2.537-1.434-1.765 1.434zm2.426 3.088l-2.316-1.434a15.21 15.21 0 0 1-3.2.882c1.78.57 3.661.758 5.519.552zm4.632-1.434l-3.309-1.985c-.662.441-1.324.882-2.1 1.324l2.868 1.654a8.7 8.7 0 0 0 2.544-.993z" fill="url(#B)"/><g class="C"><path d="M181.458 167.273l-87.792 50.073a11.594 11.594 0 0 0-.11 20.073l26.47 15.551" stroke="#a54335" class="H"/><path stroke="#007692" stroke-width="1.247" d="M113.629 154.589l-76.322 44.889" class="E F"/></g><path d="M30.799 217.235l13.566 7.5a9.408 9.408 0 0 0 9.044 0l32.647-19.411a4.14 4.14 0 0 0 .11-7.169l-28.014-17.096-27.353 20.735z" class="D"/><path d="M40.064 211.941L4.77 191.427v8.823a3.43 3.43 0 0 0 1.654 2.868l30.882 17.867a5.48 5.48 0 0 0 5.515 0l30.33-17.758a4.457 4.457 0 0 0 2.319-3.859v-7.831z" class="L"/><path d="M40.064 211.937v9.816a4.98 4.98 0 0 0 2.757-.772l30.33-17.757a4.457 4.457 0 0 0 2.316-3.86v-7.827l-35.403 20.4z" fill="#0b7692"/><g class="B"><path d="M5.764 192.971l32.1 18.309c1.33.771 2.97.771 4.3 0l32.2-18.091a2.27 2.27 0 0 0 0-3.86l-29.778-17.424a8.66 8.66 0 0 0-8.934 0l-29.779 17.1a2.323 2.323 0 0 0-.11 3.971z"/><use xlink:href="#L"/></g><path d="M41.051 191.316l11.8 6.507c.772.441.662 1.1-.11 1.544l-10.588 6.287a3.044 3.044 0 0 1-2.757.11l-11.8-6.618c-.772-.441-.662-1.1.11-1.544l10.588-6.287a3.04 3.04 0 0 1 2.757.001z" class="I"/><g class="B"><use xlink:href="#L" x="-.552" y=".221"/><use xlink:href="#L"/></g><path d="M52.857 197.713l-11.8-6.507a3.044 3.044 0 0 0-2.757.11l-10.919 6.4c-.772.441-.882 1.1-.11 1.544l11.8 6.507a3.044 3.044 0 0 0 2.757-.11l10.919-6.4a.825.825 0 0 0 .11-1.544z" class="I"/><path d="M37.527 192.86l-8.713 5.184c-.551.331-.551.772-.11 1.1l10.809 5.956a2.24 2.24 0 0 0 1.875-.11l8.713-5.184" class="B"/><g class="I"><use xlink:href="#M"/><use xlink:href="#M"/></g><path d="M36.203 179.405l-12.353 7.279c-.772.441-.772 1.1-.11 1.544l15.772 8.713a2.83 2.83 0 0 0 2.647-.11l12.353-7.279" class="B"/><path d="M46.902 182.051l-7.279-3.971a1.548 1.548 0 0 0-1.213 0c-.331.221-.331.551 0 .662l7.279 3.971c.387.165.826.165 1.213 0 .331-.221.331-.551 0-.662z" fill="#a9a9a9"/><ellipse cx=".882" cy=".441" rx=".882" ry=".441" transform="rotate(-4.56 2354.389 -555.443)" fill="#a5a5a6"/><path d="M35.1 182.823l4.853 2.647a.54.54 0 0 1 0 .993l-3.64 2.1a2.01 2.01 0 0 1-1.765.11l-4.853-2.647a.54.54 0 0 1 0-.993l3.64-2.1a2.01 2.01 0 0 1 1.765-.11zm1.103-3.529l18.309 10.037-2.206 1.324-18.309-10.037c-.11 0 2.206-1.324 2.206-1.324z" fill="#62b85b"/><g stroke="#d3d3d3" class="E F"><path d="M27.27 187.346l4.963 2.757" class="C N"/><path d="M41.939 187.677l4.743 2.647" stroke-width="1.784" class="I"/><path d="M39.402 189l4.963 2.757" class="C N"/></g><path d="M37.637 190.103l5.184 2.868a.424.424 0 0 1 0 .772l-1.985 1.213a1.634 1.634 0 0 1-1.434 0l-5.184-2.868a.424.424 0 0 1 0-.772l1.985-1.213a3.14 3.14 0 0 1 1.434 0z" class="I"/><path d="M34.99 196.937c.11.662.882.882 1.765.331l8.051-4.743c.882-.551.662-.993-.662-.993l-7.72.11c-.993 0-1.985.441-2.1 1.1v.221l.662 3.971z" class="L"/><path d="M43.042 197.493l3.419 3.088-7.169 4.191-4.522-2.426z" fill="#0b7692"/><path d="M42.049 198.154l-6.728-3.75c.993-.331 1.875-1.654 2.978-1.765l1.765-.993 6.728 3.75c2.426 1.324 2.1 3.75-.772 5.4l-4.3 2.537c2.647-1.434 2.868-3.64.662-5.073a.404.404 0 0 1-.333-.106z" class="L"/><path stroke="#353635" stroke-width="1.067" d="M143.408 70.656l53.602 29.448" class="C E F"/><path d="M122.231 82.127l13.015 7.169a9.056 9.056 0 0 0 8.713 0l31.212-18.53a3.94 3.94 0 0 0 .11-6.838l-26.8-16.323-26.25 19.853z" class="D"/><path d="M128.738 76.061L93.114 55.326v8.934a3.43 3.43 0 0 0 1.654 2.866l31.213 18.088a5.683 5.683 0 0 0 5.625 0l30.551-17.978a4.5 4.5 0 0 0 2.316-3.971v-7.829z" fill="#5c5c5d"/><path d="M128.739 76.061v9.816a4.74 4.74 0 0 0 2.757-.772l30.662-17.869a4.5 4.5 0 0 0 2.316-3.971v-7.829z" opacity=".68"/><path d="M94.217 56.87l32.426 18.529c1.33.771 2.97.771 4.3 0l32.426-18.2a2.27 2.27 0 0 0 0-3.86l-30.11-17.537a8.86 8.86 0 0 0-9.044 0l-30 17.206a2.186 2.186 0 0 0 .002 3.862z" class="B"/><path d="M135.359 41.539l17.316 10.147c1.213.662 1.1 1.765-.11 2.426l-24.6 13.456a5.15 5.15 0 0 1-4.412 0l-17.314-10.147c-1.213-.662-1.1-1.765.11-2.426l24.485-13.456a5.4 5.4 0 0 1 4.525 0z" fill="#5c5c5d"/><path d="M129.841 45.84l14.89 8.713c.551.331.551.882-.11 1.213l-14.007 7.72a2.57 2.57 0 0 1-2.206 0l-14.779-8.713c-.551-.331-.551-.882.11-1.213l14.007-7.72a2.334 2.334 0 0 1 2.095 0z" fill="#353635"/><path d="M120.908 51.906c0-.221.331-.441.772-.441a.86.86 0 0 1 .772.331c0 .331.331.662.772.993.441.221.882.331 1.1.11.331-.11.221-.331-.331-.882-.662-.662-.993-1.213 0-1.765a3.31 3.31 0 0 1 3.2.11 2.64 2.64 0 0 1 1.1 1.1c.11.221-.11.441-.441.441a.97.97 0 0 1-.772-.11c-.11 0-.11-.11-.221-.221a1.483 1.483 0 0 0-.662-.772 1.112 1.112 0 0 0-.993-.11c-.331.221-.221.331.331.993.662.662.882 1.213 0 1.765a3.52 3.52 0 0 1-3.309-.11c-.772-.441-1.213-.882-1.324-1.434zm4.191 2.426c0-.221.331-.441.772-.441.221 0 .331 0 .441.11.11.11.221.11.221.221a2.04 2.04 0 0 0 .775.996c.441.221.882.331 1.1.11.331-.11.221-.331-.331-.882-.662-.662-.993-1.213 0-1.765a3.31 3.31 0 0 1 3.2.11 2.64 2.64 0 0 1 1.1 1.1c.11.221-.11.441-.441.441-.221 0-.551 0-.662-.11l-.221-.221a1.483 1.483 0 0 0-.662-.772 1.112 1.112 0 0 0-.993-.11c-.331.221-.221.331.331.993.662.662.882 1.213 0 1.654a3.52 3.52 0 0 1-3.309-.11 1.98 1.98 0 0 1-1.324-1.324zm8.382.441a1 1 0 0 1 1.1 0l1.324.772c1.434.882 1.434 2.1 0 2.868a5.5 5.5 0 0 1-5.073-.11l-1.324-.772c-.331-.11-.221-.441 0-.551l3.971-2.206zm-1.654 2.978a3.505 3.505 0 0 0 2.978.11c.882-.441.993-1.213.221-1.654l-.882-.551-3.088 1.654z" class="B"/><g fill="#353635"><ellipse cx="1.324" cy=".772" rx="1.324" ry=".772" transform="matrix(.999 -.034 .034 .999 147.13 52.169)"/><ellipse cx="1.324" cy=".772" rx="1.324" ry=".772" transform="rotate(-1.95 1992.65 -3670.571)"/><ellipse cx="1.324" cy=".772" rx="1.324" ry=".772" transform="rotate(-1.95 1330.848 -3860.3)"/><ellipse cx="1.324" cy=".772" rx="1.324" ry=".772" transform="rotate(-1.95 1695.364 -3169.658)"/></g><path stroke="#c88723" stroke-width="1.492" d="M316.788 245.911l65.624 35.955" class="C E F"/><path d="M394.875 323.116l15.882 8.823a10.95 10.95 0 0 0 10.588 0l38.272-22.61a4.905 4.905 0 0 0 .221-8.382l-32.758-20.073-32.205 24.264v17.978z" class="D"/><path d="M402.927 315.726l-43.676-25.367v10.919a4.215 4.215 0 0 0 1.985 3.529l38.272 22.169a6.88 6.88 0 0 0 6.838 0l37.5-21.838a5.51 5.51 0 0 0 2.757-4.853v-9.6l-43.676 25.036z" fill="#eba429"/><path d="M402.932 315.682l-.005 12.2a6.429 6.429 0 0 0 3.449-.894l37.471-21.844a5.6 5.6 0 0 0 2.78-5.01v-8.97z" opacity=".367"/><path d="M360.574 292.233l39.705 22.72a5.08 5.08 0 0 0 5.294 0l39.816-22.279a2.74 2.74 0 0 0 0-4.743l-36.838-21.507a10.958 10.958 0 0 0-11.029 0L360.795 287.6a2.55 2.55 0 0 0-.221 4.632z" class="B"/><g clip-path="url(#C)" transform="translate(371.603 269.734)"><path d="M29.446 33.198a5.955 5.955 0 0 1-2.647-2.868 5.89 5.89 0 0 1-.221-2.426c.11-.993 1.544-1.765 3.2-1.875 1.434 0 2.647.662 2.647 1.544v.221c-.074.444-.036.899.11 1.324a3.38 3.38 0 0 0 2.537 1.654 6.66 6.66 0 0 0 5.625-1.544 1.864 1.864 0 0 0 .221-2.426 4.713 4.713 0 0 0-2.757-1.434l-21.066-1.434h-.11c-3.86-.331-7.059-1.985-8.382-4.3-1.213-2.206-.551-4.743 1.654-6.618 5.184-4.412 12.684-4.3 17.316-2.316 1.1.441 1.544.441 3.529-.11.551-.11 1.1-.331 1.765-.441a19.559 19.559 0 0 1 12.684 1.544c3.971 2.316 5.073 5.073 3.529 8.6-.441.993-1.985 1.654-3.64 1.544-1.434-.11-2.426-.993-2.1-1.875l.11-.11c.993-2.316.331-3.86-2.1-5.294a11.575 11.575 0 0 0-7.059-.882c-.441.11-.882.221-1.434.331-2.206.551-5.294 1.324-8.823-.11-1.213-.551-5.515-1.985-9.154 1.1a2.51 2.51 0 0 0-.772 3.2c.662 1.213 2.316 1.985 4.3 2.206l21.176 1.434h.11c2.978.331 5.4 1.544 6.618 3.2a4.217 4.217 0 0 1-.441 5.515c-2.1 2.537-7.39 4.632-12.9 3.64a7.33 7.33 0 0 1-3.529-.993" fill="url(#D)"/></g><path d="M453.661 247.455l-10.478 6.618a13.594 13.594 0 0 1-14.007.221l-57.573-32.427" stroke="#cda500" stroke-width=".993" class="C H"/><path d="M468.55 263.779l10.257 5.625a6.88 6.88 0 0 0 6.838 0l37.279-19.41a3.15 3.15 0 0 0 .11-5.4l-21.176-12.8-33.308 20.4z" class="D"/><path d="M468.55 254.183l-34.852-20.294v8.713a3.25 3.25 0 0 0 1.654 2.757l30.551 17.647a5.276 5.276 0 0 0 5.4 0l30-17.426a4.23 4.23 0 0 0 2.206-3.86V234l-34.963 20.184z" fill="#f8c700"/><path d="M468.55 254.183v9.6a4.98 4.98 0 0 0 2.757-.772l30-17.426a4.23 4.23 0 0 0 2.206-3.86v-7.726l-34.963 20.184z" fill="#cda500"/><path d="M434.69 235.544l31.654 18.088a4.08 4.08 0 0 0 4.191 0l31.764-17.757a2.17 2.17 0 0 0 0-3.75l-29.448-17.206a8.714 8.714 0 0 0-8.823 0l-29.338 16.875a2.17 2.17 0 0 0 0 3.75z" class="B"/><path d="M467.006 227.603l-4.743 2.206c-4.3 1.985-5.625 5.184-2.537 7.5 3.75 2.647 11.581 2.868 16.654.551l5.515-2.537c5.073-2.316 5.294-6.176.221-8.272-4.191-1.765-10.809-1.434-15.11.551zm8.493 7.169c-3.2 1.434-8.382 1.1-9.816-1.1-.662-1.1.221-2.206 1.985-3.088l2.978-1.434a11.99 11.99 0 0 1 6.287-.772c4.412.882 4.743 3.419 1.544 4.963z" fill="#ababab"/><path d="M465.132 227.712l15.992 8.6c1.213.662.993 1.654-.331 2.316l-10.587 4.856a5.65 5.65 0 0 1-4.632 0l-15.992-8.6c-1.213-.662-.993-1.654.331-2.316l10.588-4.853a5.64 5.64 0 0 1 4.631-.003z" fill="#f8c700"/><path d="M448.808 234.11c.161.273.389.501.662.662l15.992 8.6a4.4 4.4 0 0 0 1.434.441c0-.772-3.088-3.088-7.5-5.515-4.632-2.423-9.044-4.188-10.588-4.188z" fill="#eb9621"/><path d="M448.808 234.109c.161.273.389.501.662.662l15.992 8.6a4.4 4.4 0 0 0 1.434.441c0-.772-3.088-3.088-7.5-5.515-4.632-2.426-9.044-4.188-10.588-4.188zm32.977 2.868a1.874 1.874 0 0 0-.662-.662l-15.992-8.6a4.4 4.4 0 0 0-1.434-.441c0 .772 3.088 3.088 7.5 5.515 4.633 2.423 9.044 4.188 10.588 4.188z" fill="#cda500"/><path d="M225.797 32.716l38.933 22.279a7.29 7.29 0 0 1 .11 12.573l-76.543 45" stroke="#168295" stroke-width="1.06" class="C E F"/><path d="M209.031 50.253l14.338 7.941a9.9 9.9 0 0 0 9.6 0l32.642-17.866a4.444 4.444 0 0 0 .221-7.61l-29.779-18.09-27.132 19.3.11 16.323z" class="D"/><path d="M209.693 43.304l-37.279-21.728v6.287a3.475 3.475 0 0 0 1.765 2.978l32.647 18.97a5.578 5.578 0 0 0 5.846 0l32.1-18.75a4.924 4.924 0 0 0 2.42-4.085v-5.179l-37.5 21.507z" fill="#33abc8"/><path d="M209.693 43.304v7.279a5.344 5.344 0 0 0 2.868-.772l32.1-18.75a4.922 4.922 0 0 0 2.426-4.081v-5.183z" fill="#168295"/><path d="M173.403 23.341l33.97 19.411a4.7 4.7 0 0 0 4.522 0l33.97-19.081a2.376 2.376 0 0 0 0-4.081L214.326 1.283a9.41 9.41 0 0 0-9.485 0l-31.438 18.088a2.322 2.322 0 0 0 0 3.972z" class="B"/><g clip-path="url(#E)" transform="translate(188.848 8.562)"><g fill="#d6d5d5"><path d="M25.919 9.486a.88.88 0 0 1 0 1.654 3.27 3.27 0 0 1-2.868 0 .88.88 0 0 1 0-1.654 3.27 3.27 0 0 1 2.868 0"/><path d="M23.271 11.029c.772.441.772 1.1 0 1.544a2.81 2.81 0 0 1-2.647 0c-.772-.441-.772-1.1 0-1.544a3.652 3.652 0 0 1 2.647 0"/></g><path d="M25.703 19.411s-3.64-.221-10.037-3.64-7.063-5.735-7.063-5.735l11.691-5.073 13.676 7.5-8.267 6.948z" class="M"/><path d="M21.287 21.617a1.8 1.8 0 0 0 .221-1.654l-1.875-3.529a6.73 6.73 0 0 0-1.324-1.765l-1.1-.551a15.45 15.45 0 0 0-3.088-.662l-6.18-.883a6.715 6.715 0 0 0-2.978.221c-.441.11-3.309 1.544-3.309 1.544-.882.551 2.316 2.978 6.948 5.625s9.154 4.3 10.037 3.75l1.324-.882c.464-.379.906-.784 1.324-1.213" fill="#33abc8"/><path d="M19.522 16.213l5.515-3.2-5.184-2.866-5.515 3.309-.772-.11-1.765-.221c-.772.772.221 2.316 2.316 3.419 2.1 1.213 4.743 1.654 6.176 1.1z" fill="#e2ab6e"/><path d="M33.198 5.184c3.75 2.1 3.971 5.4.331 7.61-3.64 2.1-9.706 2.1-13.456 0-3.64-2.1-3.75-5.4-.221-7.61a15.31 15.31 0 0 1 13.345 0" class="M"/><path d="M29.669 13.125C26.581 15 20.294 15 18.419 13.897s-2.1-4.632.993-6.4 7.831-2.1 10.7-.551 2.537 4.412-.441 6.176" fill="#ecbc7c"/><path d="M32.205 11.25l-2.757-.662-2.316-.882 1.1-1.654-2.647.772a16.875 16.875 0 0 1-2.316-1.434 9.001 9.001 0 0 1-.993-1.1l3.309-1.985 9.6 5.294c.109-.113-2.98 1.651-2.98 1.651z" class="M"/><path d="M17.755 14.118c-.11-.11-.221-.331-.331-.441-.221-.331 0-.662.551-.772.221 0 .441-.11.662 0a2.325 2.325 0 0 1 2.1 1.324.237.237 0 0 0 .221.221 12.87 12.87 0 0 0 5.073.662c.032-.397.29-.74.662-.882l4.081-2.426.662-.331a1.305 1.305 0 0 1 1.1.11 10.25 10.25 0 0 0 1.1.551 2.98 2.98 0 0 0 .882-.772 3.93 3.93 0 0 0-1.213-4.522c-1.875-1.654-4.632-2.426-7.941-2.426a24.93 24.93 0 0 0-2.868.11 4.16 4.16 0 0 0-1.765.551c.331.221.662.331.993.551.331.11.441.441.221.662a1.539 1.539 0 0 1-.441.331l-4.081 2.426-.662.331c-.403.129-.84.089-1.213-.11-1.1-.662-1.324-1.213-.662-2.1.266-.321.561-.616.882-.882l.993-.551 1.985-.882a24.88 24.88 0 0 1 2.426-1.213 14.285 14.285 0 0 1 10.257-.331c.644.21 1.27.468 1.875.772l1.544.882c.331.221.551.441.882.662 2.1 1.544 2.537 3.309 1.324 5.184a10.55 10.55 0 0 1-3.088 2.647 7.594 7.594 0 0 0-1.434 1.213l-.772.441c-.11 0-.221.11-.331.11a7.82 7.82 0 0 1-2.426.662 2.827 2.827 0 0 1-1.985-.331.824.824 0 0 0-.551-.11 15.17 15.17 0 0 1-5.515-.662 1.11 1.11 0 0 1-.331-.11c-.583.11-1.182.11-1.765 0a.84.84 0 0 1-.551-.221 1.18 1.18 0 0 1-.551-.331m5.845-9.926a16.715 16.715 0 0 1 8.6 1.544c2.426 1.324 3.309 2.978 3.2 4.853a2.066 2.066 0 0 0 .441-2.426c-1.1-2.1-4.081-3.75-7.831-4.3a9.89 9.89 0 0 0-4.412.331" fill="#333"/></g><path d="M58.703 104.848l13.787-7.39a41.242 41.242 0 0 1 7.941-3.2c5.184-1.324 9.926-1.213 14.559 1.544l63.749 36.838" stroke="#42913d" stroke-width="1.186" class="C E F"/><path d="M32.343 141.906l14.448 7.941a9.9 9.9 0 0 0 9.6 0l34.742-20.514a4.444 4.444 0 0 0 .221-7.61l-29.783-18.199-29.118 22.059c-.11-.111-.11 16.323-.11 16.323z" class="D"/><path d="M39.628 135.178l-39.6-23.051v9.926a3.575 3.575 0 0 0 1.875 3.2l34.742 20.074a6.18 6.18 0 0 0 6.176 0l34.08-19.853a5.05 5.05 0 0 0 2.537-4.412v-8.713l-39.81 22.829z" fill="#42913d"/><path d="M39.623 135.178v10.919a6.24 6.24 0 0 0 3.088-.882l34.08-19.853a5.05 5.05 0 0 0 2.537-4.412v-8.713z" opacity=".372"/><path d="M1.241 113.892l36.066 20.625a4.58 4.58 0 0 0 4.743 0l36.065-20.294a2.484 2.484 0 0 0 0-4.3L44.696 90.399a9.91 9.91 0 0 0-10.037 0L1.241 109.59a2.486 2.486 0 0 0 0 4.302z" class="B"/><path d="M19.435 113.009c-.662 6.507 7.941 11.14 19.081 10.367s20.735-6.618 21.286-13.125c.662-6.507-7.941-11.14-19.081-10.368s-20.621 6.618-21.286 13.126zm21.18-10.919a26.75 26.75 0 0 1 5.184.11l-.11.993a.732.732 0 0 1-.441.551l-2.757 1.654a1.44 1.44 0 0 1-1.324.11l-.993-.551h-.662a1.575 1.575 0 0 0-.662.221l-.882.662c-.221.11-.331.221-.331.441l-.11.662c0 .331-.441.551-.993.551a1.4 1.4 0 0 1-.662-.11l-.772-.441c-.11-.11-.221-.221-.221-.331l.11-1.544c0-.331-.331-.551-.882-.441h-.772c-.551 0-.993.331-.993.551l-.221 1.765c0 .441.551.662 1.213.662h.331c.453-.064.907.101 1.213.441l.662 1.434a.84.84 0 0 0 .551.221h.221c.331 0 .662.11.662.331l-.11.772c0 .221-.331.441-.662.441s-.662.221-.662.441v.11q0 .165.331.331l1.434.331q.662.165.662.662l-.11.993c0 .441-.662.772-1.324.882l-2.1.11a2.15 2.15 0 0 1-.882-.11l-1.544-.882a2 2 0 0 0-1.434-.221c-.331 0-.551-.11-.551-.221l-.882-1.765c0-.11-.11-.11-.221-.221l-2.1-1.1c-.11-.11-.441-.11-.662-.11-.551 0-.993.331-.993.551l-.11.993 1.213.662h.668c.331 0 .662.11.662.331l-.11.772c0 .221-.331.441-.662.441l-1.654.11a.824.824 0 0 1-.551-.11l-1.654-1.213v-.221c.884-5.297 8.605-10.04 17.649-10.701zm-10.258 15.661a1.4 1.4 0 0 1-.662-.11l-1.985-1.1c-.11-.11-.221-.221-.221-.331 0-.331.441-.551.993-.551l1.324-.11a1.4 1.4 0 0 1 .662.11l.772.441c.11.11.221.221.221.331l-.11.772c-.001.217-.442.548-.994.548zm25.588-7.831h-.551c-.662 0-1.324.441-1.324.882l-.11.993a2.83 2.83 0 0 1-1.1 1.765l-1.434 1.1a6.44 6.44 0 0 1-3.088 1.1l-1.985.11a4.31 4.31 0 0 1-3.088-.772l-1.875-1.875a1.415 1.415 0 0 1-.441-1.1l.11-1.434c0-.551.441-.993.993-1.434l3.2-2.206.11-.882c0-.441.331-.772.882-1.1l1.434-.882a.8.8 0 0 0 .441-.662l.11-.662c4.743 1.1 7.72 3.75 7.72 7.059z" fill="#71c4d4"/><path d="M38.078 114.222c0 .11 0 .11-.11.221a.34.34 0 0 0 .11-.221zm-2.978-7.279c0-.11-.11-.11-.11-.221a.34.34 0 0 0 .11.221zm2.096 3.97zm0-.771c0-.11 0-.11-.11-.221.11.11.11.11.11.221zm-1.985-3.089l.772.331zm1.434 4.191zm1.213-5.404zm-1.88 5.625zm-1.76 3.749c-.221 0-.331-.11-.441-.11a.67.67 0 0 1 .441.11zm2.642-3.97zm-1.098.552c0-.11 0-.11.11-.221a.383.383 0 0 0-.11.221zm.988-.552zm1.108-5.404l.11-.11zm-.001 8.713l-.11.11c.11 0 .11 0 .11-.11zm-.771-3.529zm-.115.11zm-.548-1.323c-.331 0-.551-.11-.551-.221 0 .11.331.221.551.221zm.552 1.323z" fill="#00a3ad"/><path d="M19.435 113.009c-.662 6.507 7.941 11.14 19.081 10.367s20.735-6.618 21.286-13.125c.662-6.507-7.941-11.14-19.081-10.368s-20.621 6.618-21.286 13.126zm21.18-10.919a26.75 26.75 0 0 1 5.184.11l-.11.993a.732.732 0 0 1-.441.551l-2.757 1.654a1.44 1.44 0 0 1-1.324.11l-.993-.551h-.662a1.575 1.575 0 0 0-.662.221l-.882.662c-.221.11-.331.221-.331.441l-.11.662c0 .331-.441.551-.993.551a1.4 1.4 0 0 1-.662-.11l-.772-.441c-.11-.11-.221-.221-.221-.331l.11-1.544c0-.331-.331-.551-.882-.441h-.772c-.551 0-.993.331-.993.551l-.221 1.765c0 .441.551.662 1.213.662h.331c.453-.064.907.101 1.213.441l.662 1.434a.84.84 0 0 0 .551.221h.221c.331 0 .662.11.662.331l-.11.772c0 .221-.331.441-.662.441s-.662.221-.662.441v.11q0 .165.331.331l1.434.331q.662.165.662.662l-.11.993c0 .441-.662.772-1.324.882l-2.1.11a2.15 2.15 0 0 1-.882-.11l-1.544-.882a2 2 0 0 0-1.434-.221c-.331 0-.551-.11-.551-.221l-.882-1.765c0-.11-.11-.11-.221-.221l-2.1-1.1c-.11-.11-.441-.11-.662-.11-.551 0-.993.331-.993.551l-.11.993 1.213.662h.668c.331 0 .662.11.662.331l-.11.772c0 .221-.331.441-.662.441l-1.654.11a.824.824 0 0 1-.551-.11l-1.654-1.213v-.221c.884-5.297 8.605-10.04 17.649-10.701zm-10.258 15.661a1.4 1.4 0 0 1-.662-.11l-1.985-1.1c-.11-.11-.221-.221-.221-.331 0-.331.441-.551.993-.551l1.324-.11a1.4 1.4 0 0 1 .662.11l.772.441c.11.11.221.221.221.331l-.11.772c-.001.217-.442.548-.994.548zm25.588-7.831h-.551c-.662 0-1.324.441-1.324.882l-.11.993c0 .551-2.537 2.868-2.537 2.868a6.44 6.44 0 0 1-3.088 1.1l-1.985.11a4.31 4.31 0 0 1-3.088-.772l-1.875-1.875a1.415 1.415 0 0 1-.441-1.1l.11-1.434c0-.551.441-.993.993-1.434l3.2-2.206.11-.882c0-.441.331-.772.882-1.1l1.434-.882a.8.8 0 0 0 .441-.662l.11-.662c4.743 1.1 7.72 3.75 7.72 7.059z" fill="#73d180"/><path d="M34.328 121.391s2.647-2.647 4.412-2.316a33.06 33.06 0 0 0 5.4.662 39.51 39.51 0 0 1 4.412.441 10 10 0 0 1-4.963 1.875 13.7 13.7 0 0 0-4.632 1.213 27.98 27.98 0 0 1-5.625 0c.114 0-1.1-.221.996-1.875zm-3.088-5.405l-.772-.441c-.11-.11-.441-.11-.662-.11l-1.324.11c-.551 0-.993.331-.993.551 0 .11.11.221.221.331l1.985 1.1c.11.11.441.11.662.11.551 0 .993-.331.993-.551l.11-.772c.001-.107-.11-.217-.22-.328zm16.544-11.911l-1.544.882a1.95 1.95 0 0 0-.882 1.1v.882l-3.2 2.206a1.92 1.92 0 0 0-.993 1.434l-.11 1.434c-.021.414.14.815.441 1.1l1.875 1.875a4.154 4.154 0 0 0 3.088.772l1.985-.11a5.48 5.48 0 0 0 3.088-1.1l1.434-1.1a2.83 2.83 0 0 0 1.1-1.765l.11-.993c0-.221.551-.441 1.213-.662a27.254 27.254 0 0 0 3.2-1.213l1.324-.662c-.772-3.64-4.412-7.169-11.912-8.162l.331 3.309a1.98 1.98 0 0 1-.548.773zm-27.463 6.066l-.441 1.1a10.76 10.76 0 0 1 2.868 1.213c.11 0 .441.331.551.441.11 0 .331.221.441.331l1.434 1.1c.165.1.36.139.551.11l1.654-.11c.331 0 .662-.221.662-.441l.11-.772c0-.11-.11-.221-.221-.331h-.993l-1.213-.662.11-.993c0-.331.441-.551.993-.551a1.4 1.4 0 0 1 .662.11l2.1 1.1c.11 0 .11.11.221.221l.882 1.765a.84.84 0 0 0 .551.221 3.02 3.02 0 0 1 1.434.221l1.544.882a.67.67 0 0 0 .441.11h.441l2.1-.11h.221c.221 0 .331-.11.441-.11s.221-.11.331-.221l.11-.11c.11-.11.11-.11.11-.221s.11-.11.11-.221l.11-.993q0-.5-.662-.662l-1.434-.331a.352.352 0 0 1-.331-.331v-.11c0-.11 0-.11.11-.221a.84.84 0 0 1 .551-.221h.662v-.11l.11-.772c0-.11 0-.11-.11-.221a.824.824 0 0 0-.551-.11h-.221c-.331 0-.551-.11-.551-.221l-.662-1.434c-.11-.331-.662-.441-1.213-.441h-.331c-.662 0-1.324-.221-1.213-.662l.221-1.765c0-.331.441-.551.993-.551h.772c.551 0 .882.221.882.441l-.11 1.544c0 .11 0 .11.11.221l.11.11.772.441c.11.11.441.11.662.11.551 0 .993-.331.993-.551l.11-.772c0-.11 0-.221.11-.221l.11-.11.11-.11.772-.441a1.57 1.57 0 0 1 .662-.221h.662l.993.551a1.42 1.42 0 0 0 1.324-.11l2.757-1.654a.73.73 0 0 0 .441-.551l.11-.993s1.654-1.434.772-2.316a32.796 32.796 0 0 0-5.735-.11c-10.037.221-18.419 4.522-21.066 9.816z" fill="#42913d"/><path d="M53.85 111.906c-5.956 4.081-16.654 9.154-31.875 7.169 3.309 2.978 9.375 4.743 16.434 4.191 9.375-.662 17.537-4.853 20.294-10.037a8.42 8.42 0 0 0 .993-3.088 5.22 5.22 0 0 0-.11-1.875v-.11l-.331-.993c.22 0-1.655 2.206-5.405 4.743z" opacity=".68"/><path stroke="#007692" stroke-width="1.292" d="M335.317 41.539L219.069 109.92" class="C E F"/><path d="M323.847 57.752l14.117 7.831a9.472 9.472 0 0 0 9.375 0l33.86-20.073a4.345 4.345 0 0 0 .11-7.5l-29.007-17.758-28.455 21.507v15.993z" class="D"/><use xlink:href="#I" x="-58.896" y="-64.301" fill="#008dbe"/><use xlink:href="#J" x="-58.896" y="-64.301" fill="#007692"/><use xlink:href="#K" x="-58.896" y="-64.301" class="B"/><path d="M332.67 26.208a4.8 4.8 0 0 1 .772.662c1.875-1.434 4.963-1.765 6.728-.551.342.196.642.459.882.772 2.647-1.213 5.956-.662 7.279 1.1.993 1.324.662 2.978-.772 4.3 1.544.993 1.544 2.757 0 4.081a5.11 5.11 0 0 1-5.4.662l-13.566-7.5c-1.213-.772-1.1-2.1.11-2.978a3.52 3.52 0 0 1 3.971-.551z" fill="#ababab"/><path d="M341.273 35.473a5.795 5.795 0 0 0-1.654-.551c2.316-2.206 1.875-5.184-.993-6.507a8.27 8.27 0 0 0-1.765-.551c1.544-2.868-.441-5.846-4.3-6.507a10.77 10.77 0 0 0-8.162 1.985 7.48 7.48 0 0 0-7.941 1.213c-1.875 1.765-1.765 4.081.221 5.4l18.859 10.485a5.67 5.67 0 0 0 5.956-.993c1.323-1.324 1.323-2.978-.221-3.971z" fill="#008dbe"/><path stroke="#2a5776" stroke-width=".985" d="M215.76 288.704l58.565-34.852" class="C E F"/><path d="M195.577 324.218l14.007 7.721c2.868 1.654 6.838.882 9.816-.772l33.86-19.963a4.25 4.25 0 0 0 .11-7.39l-29.007-17.757-28.345 21.507-.441 16.654z" class="D"/><path d="M195.577 313.961l-37.169-21.617v9.265a3.475 3.475 0 0 0 1.765 2.978l32.535 18.857a5.578 5.578 0 0 0 5.846 0l31.985-18.639a4.922 4.922 0 0 0 2.426-4.081v-8.162z" fill="#3480bf"/><path d="M195.577 313.965v10.257a5.344 5.344 0 0 0 2.868-.772l31.985-18.639a4.922 4.922 0 0 0 2.426-4.081v-8.165z" fill="#2a5776"/><g class="B"><path d="M159.621 293.999l33.75 19.3a4.7 4.7 0 0 0 4.522 0l33.86-18.97a2.28 2.28 0 0 0 0-3.971l-31.324-18.307a9.21 9.21 0 0 0-9.375 0l-31.433 17.98a2.28 2.28 0 0 0 0 3.971z"/><path d="M213.444 293.999c-2.537 5.294-11.581 8.162-20.073 6.4-8.162-1.765-13.015-7.169-10.919-12.463 2.426-5.4 11.25-8.382 19.742-6.728 10.036 1.761 13.676 7.496 11.25 12.791z"/></g><path d="M193.591 301.168c-8.934-1.765-14.228-7.72-11.691-13.345 2.426-5.625 11.691-8.713 20.514-7.059a18.28 18.28 0 0 1 10.367 4.853c2.206 2.647 2.757 5.625 1.434 8.493-2.537 5.625-11.691 8.823-20.625 7.059zm9.044-19.411l-.551-.11c-8.162-1.544-16.654 1.434-18.97 6.507-1.985 5.184 3.088 10.588 11.36 12.022 7.941 1.434 15.992-1.324 18.419-6.287a7.176 7.176 0 0 0-1.213-7.831 17.388 17.388 0 0 0-9.044-4.3z" fill="#727272"/><path d="M193.811 300.505c-8.272-1.765-12.9-7.39-10.367-12.573 2.426-4.963 10.588-7.721 18.529-6.4 3.971.551 7.5 2.206 9.6 4.522a7.015 7.015 0 0 1 1.324 7.831c-2.206 5.294-10.809 8.162-19.081 6.618zm8.493-18.2l-.551-.11c-7.72-1.434-15.662 1.213-17.757 6.066s2.426 10.037 10.147 11.47c7.72 1.544 15.662-1.213 17.757-6.066a6.43 6.43 0 0 0-1.1-7.279 15.77 15.77 0 0 0-8.493-4.081z" fill="#3c3c3c"/><path d="M210.576 293.447c-.993 2.316-3.419 4.081-6.838 5.073l-1.765-2.316a6.9 6.9 0 0 0 4.412-3.419c1.434-3.64-2.206-7.5-8.051-8.493-5.625-.993-11.25.993-12.9 4.412-.11.11-.11.331-.221.441l.221-.551c2.1-4.3 9.485-6.618 16.323-5.184 6.618 1.434 10.478 5.846 8.823 10.037z" fill="url(#F)"/><path d="M204.731 299.403l-6.287-8.713-.772.221-.772.221 7.831 8.272z" fill="#727272"/><path d="M196.569 291.24c-.331-.441-.11-.882.551-1.1a1.88 1.88 0 0 1 1.765.331c.331.331.11.882-.551 1.1a1.635 1.635 0 0 1-1.765-.331z" class="B"/><path d="M197.231 291.793c-.772-.11-1.324-.662-1.1-1.213s1.1-.772 1.875-.662 1.324.662 1.1 1.213a1.548 1.548 0 0 1-1.875.662zm.772-1.544a1.33 1.33 0 0 0-1.324.441c-.221.331.221.772.772.882a1.33 1.33 0 0 0 1.324-.441c.11-.11 0-.331-.11-.441a2.31 2.31 0 0 0-.662-.441z" fill="#3c3c3c"/><path d="M175.172 295.211c.11-3.088 4.081-5.4 8.823-5.184s8.6 2.757 8.493 5.845-4.081 5.4-8.823 5.184c-4.853-.22-8.603-2.757-8.493-5.845z" fill="url(#G)"/><path d="M187.636 294.108a3.951 3.951 0 0 0-2.757 0 .383.383 0 0 0-.221.11c-.221 0-.331.11-.551.221-.441.11-.551.441-.331.662.308.25.719.333 1.1.221l.441-.11a.405.405 0 0 0 .331-.11 3.75 3.75 0 0 1 1.1-.11h.221c.993.221 1.434.993.993 1.544a1.88 1.88 0 0 1-1.765.662 2.1 2.1 0 0 1-1.434-.551l-.11-.221-.551-.551c-.11-.11-.221-.331-.331-.441s-.221-.221-.221-.331c-.221-.331-.441-.551-.662-.882-.11-.221-.331-.331-.551-.551a3.003 3.003 0 0 0-1.765-.441 3.4 3.4 0 0 0-1.1.11c-1.213.331-1.765 1.324-1.213 2.1l.11.11a3.21 3.21 0 0 0 3.309.662c.331-.11.551-.441.331-.662a1.06 1.06 0 0 0-.993-.221c-.441.11-.993.11-1.213-.221-.221-.331-.11-.662.331-.882.11 0 .331-.11.441-.11h.11c.221 0 .331 0 .441.11l.331.331.662.772c.11.11.221.221.221.331l.331.441.441.662c.11.11.11.221.221.221a3.67 3.67 0 0 0 2.757.993c1.875 0 3.419-.882 3.419-2.1.221-.552-.551-1.434-1.875-1.765z" class="B"/><path d="M247.524 251.536l93.749 53.271a5.228 5.228 0 0 1 .11 9.044l-13.9 8.382" stroke="#42913d" stroke-width="1.108" class="C E F"/><path d="M306.641 352.787l15 8.272c3.088 1.765 7.39.882 10.478-.772l36.176-21.4a4.6 4.6 0 0 0 .221-7.941l-30.993-18.859-30.33 22.941z" class="D"/><path d="M306.641 341.755l-39.705-23.051v9.926a3.575 3.575 0 0 0 1.875 3.2l34.742 20.074a6.18 6.18 0 0 0 6.176 0l34.08-19.853a5.05 5.05 0 0 0 2.537-4.412v-8.713l-39.705 22.831z" fill="#63b85b"/><path d="M306.641 341.755v10.919a6.24 6.24 0 0 0 3.088-.882l34.08-19.853a5.05 5.05 0 0 0 2.537-4.412v-8.713l-39.705 22.941z" opacity=".339"/><path d="M268.149 320.469l36.066 20.625a4.58 4.58 0 0 0 4.743 0l36.175-20.294a2.484 2.484 0 0 0 0-4.3l-33.529-19.522a9.91 9.91 0 0 0-10.037 0l-33.419 19.3a2.39 2.39 0 0 0 0 4.191z" class="B"/><g fill="#63b85b"><path d="M290.318 320.8l3.75-.11-.11 3.75 22.939-12.794-6.838.11v-2.1l13.238-.216-.221 7.169-3.75.11.11-3.75-22.939 12.794 6.838-.11v2.1l-13.238.216z"/><path d="M303.774 309.771v2.1l-6.838.11 22.282 11.907.11-3.75 3.75-.11-.221 7.169-13.235.221v-2.1l6.838-.11-22.282-11.908-.11 3.75-3.75.11.221-7.169 13.235-.221z"/></g><g class="G"><path d="M427.08 212.714a12.276 12.276 0 0 0 6.176-10.7v-9.6L220.392 81.907a9.415 9.415 0 0 0-9.485.11L79.328 151.832v11.581a11.67 11.67 0 0 0 5.846 10.147l204.372 113.27a13.76 13.76 0 0 0 13.676-.221l123.859-73.9z"/><path d="M301.567 287.489l125.513-74.668a12.05 12.05 0 0 0 6.176-10.367v-10.365l-129.042 79.08-7.72 1.434v15.992a15.046 15.046 0 0 0 5.073-1.106z" class="J"/></g><path d="M428.624 199.699a9.474 9.474 0 1 0-.11-16.434L220.392 69.554a9.415 9.415 0 0 0-9.485.11L84.07 144.552a9.506 9.506 0 0 0 0 16.323l201.395 109.632a22.25 22.25 0 0 0 21.948-.331l121.211-70.477z" fill="#cbd3db"/><g class="G"><path d="M196.128 141.686l-26.139 17.1 9.265-27.463z" class="J"/><path d="M309.619 195.729l-70.587-39.374a1 1 0 0 1 .441-1.875l5.846-.221a2.04 2.04 0 0 0 1.872-1.633 2.034 2.034 0 0 0-1.1-2.227l-59.338-24.706-8.823 4.632-10.147 28.676 27.9-1.654 2.1-1.213 25.588-.993 57.573 53.933v1.1c.237-.013.465-.089.662-.221 5.956-3.529 28.014-12.684 28.014-12.684a.884.884 0 0 0 0-1.544zm10.257-19.412l32.757-18.97 21.617 10.478.441.221-33.088 20.184-21.286-11.47z" class="J"/></g><path d="M319.986 176.317l32.757-20.294 21.507 11.8-32.647 20.4z" class="B"/><path d="M309.067 175.656l32.757-18.86 21.507 10.368.551.331-33.088 20.073-21.4-11.47z" class="G J"/><path d="M309.067 175.656l32.757-20.294 21.507 11.8-32.536 20.4z" class="B"/><path d="M340.059 160.325l13.566 7.279m-16.433-5.183l11.14 5.846m-14.449-3.751l13.566 7.169m-16.875-5.404l13.125 6.948m-16.654-5.073l13.676 7.169m-16.875-4.963l13.566 7.169m-12.022-8.272l12.684 6.728m-9.265-8.713l11.029 5.735m-7.61-7.61l11.691 6.176m-8.272-8.162l12.904 6.838m-9.926-8.933l12.353 6.507" stroke="#c8c9c8" stroke-width=".966"/><g class="G"><path d="M308.295 221.979zm16.103-8.603c-.441-2.978-3.971-5.515-6.948-5.956l-1.875.772 3.529.331.331.331a7.95 7.95 0 0 1 1.1 1.985c1.324 3.529-1.434 8.382-6.287 10.367a10.86 10.86 0 0 1-4.412.882c12.022.441 15.11-4.963 14.559-8.713zm104.006-30.331l-98.161-53.712-34.852 11.25-8.272 29.117 146.138 22.61a9.49 9.49 0 0 0-4.853-9.265zm-53.602 13.897l-19.081-.882-4.191 12.022 22.169.11c4.191 0 5.294-1.875 5.294-6.066 0-2.978-.772-4.522-4.191-5.184z" class="J"/><path d="M302.009 125.141c6.728 12.9 2.757 27.353 1.654 31.213-.551 1.765-4.743 5.294-7.831 8.713-1.434 1.654-1.985 2.316-3.64 3.088-1.213.551-3.75 1.544-3.75 1.544l13.567-44.558z" class="K"/></g><path d="M231.091 27.316c0-4.963 0-7.72 4.3-5.735l105.66 56.58c1.324.772 1.875 1.544 1.875 3.86l.551 72.021c0 3.419-5.845 9.926-9.265 9.926l-93.969-56.359c-1.668.001-3.267-.661-4.446-1.841s-1.841-2.779-1.841-4.446V29.187c0-.221-2.868-1.654-2.868-1.875z" fill="#2d2d2d"/><path d="M275.865 71.98l25.147 52.61c5.956 11.47 3.309 24.264 1.324 30.441-.551 1.765-6.618 8.493-9.706 11.912a8.716 8.716 0 0 1-5.625 2.868 13.285 13.285 0 0 1-8.382-1.875l-16.985-9.375a3.718 3.718 0 0 1 .551-6.728s11.029-2.868 13.566-5.4c18.309-18.088 3.529-45.882.11-74.448z" fill="#c8c9c8"/><path d="M280.281 140.693s17.1 6.728 15 23.272c0 0 6.4-6.618 7.059-8.934a50.71 50.71 0 0 0 2.316-13.787l-21.4-7.39-2.978 6.838z" fill="#babab9"/><g class="G"><path d="M235.834 23.449l98.6 53.492c3.971 2.206 6.287 3.971 6.287 6.287v72.242c.001 1.668-.661 3.267-1.841 4.446s-2.779 1.841-4.446 1.841l-97.056-52.608c-1.668.001-3.267-.661-4.446-1.841s-1.841-2.779-1.841-4.446V30.62c0-8.051 0-9.706 4.743-7.169z"/><path d="M215.098 147.861l87.462 47.977s.221 1.654-.662 2.206l-20.294 11.8a1.634 1.634 0 0 1-1.434 0l-87.021-47.646c-.993-.551-.772-2.206-.772-2.206l21.176-12.132a1.88 1.88 0 0 1 1.545.001z" class="K"/><path d="M215.098 146.758l86.8 47.757a1.36 1.36 0 0 1 0 2.426l-20.294 11.8a1.634 1.634 0 0 1-1.434 0l-87.021-47.646a1.36 1.36 0 0 1 0-2.426l20.514-11.912a1.634 1.634 0 0 1 1.434 0z"/><path d="M320.428 210.729a6.753 6.753 0 0 0-1.1-1.985l-.331-.331-8.162-.662h-2.316l-.551.221 1.1.882c-4.632 2.1-7.169 6.176-5.735 9.485s5.956 4.743 10.809 2.647c4.853-1.875 7.719-6.728 6.286-10.257z" class="K"/><path d="M308.737 208.303a2.275 2.275 0 0 1-.662-.221c-4.3 2.206-6.618 6.176-5.294 9.375 1.434 3.309 6.507 4.412 11.25 2.426a11.56 11.56 0 0 0 4.522-3.2c-.11-.221-4.081-6.948-9.816-8.382zm11.469 1.875a9.21 9.21 0 0 0-.882-1.324 15.49 15.49 0 0 0-4.963 2.316 24.71 24.71 0 0 1 4.412 5.294c1.654-2.1 2.316-4.412 1.434-6.287z"/><path d="M319.104 208.523c-2.1-1.985-6.176-2.426-10.147-.772-.11 0-.221.11-.331.221.11 0 .11 0 .221.11a13.213 13.213 0 0 1 5.294 2.978c.441-.552 1.875-1.544 4.963-2.537z"/></g><ellipse cx="1.654" cy=".882" rx="1.654" ry=".882" transform="rotate(-15.498 926.234 -1052.65)" class="B"/><path d="M340.722 155.472v1.1a7.587 7.587 0 0 1-4.081 6.728 5.7 5.7 0 0 1-5.625-.221l-92.2-51.507c-4.191-2.206-7.72-4.3-7.72-7.72v-9.041l109.631 60.661z" fill="#c8c9c8"/><g class="B"><path d="M335.979 83.341v64.411L235.723 92.495V29.187z"/><g stroke="#fff" stroke-width=".193" class="F"><use xlink:href="#N"/><use xlink:href="#O"/><path d="M281.384 194.185l-2.426-1.434-2.426 1.434 2.537 1.323zm-3.309 1.875l-2.537-1.324-2.316 1.324 2.537 1.434z"/><use xlink:href="#N" x="-13.125" y="7.61"/><use xlink:href="#O" x="7.61" y=".772"/><use xlink:href="#P"/><use xlink:href="#P" x="-3.309" y="1.875"/><path d="M282.487 198.707l-2.427-1.324-2.426 1.434 2.537 1.324z"/><use xlink:href="#P" x="-10.037" y="5.735"/><use xlink:href="#N" x="8.603" y="5.184"/><use xlink:href="#O" x="8.603" y="5.184"/><use xlink:href="#N" x="2.206" y="8.934"/><use xlink:href="#P" x="-2.427" y="6.287"/><path d="M283.259 203.229l-2.427-1.434-2.426 1.434 2.537 1.323z"/><use xlink:href="#P" x="-20.074" y="-14.889"/><use xlink:href="#P" x="-15.221" y="-12.132"/><use xlink:href="#Q"/><use xlink:href="#N" x="-5.294" y="-2.757"/><use xlink:href="#Q" x="-7.831" y="-.11"/><path d="M274.546 187.567l-2.537-1.434-2.316 1.434 2.426 1.323z"/><use xlink:href="#Q" x=".772" y="4.633"/><path d="M265.943 181.943l-2.537-1.324-2.316 1.434 2.426 1.323zm-3.309 1.875l-2.426-1.324-2.426 1.434 2.537 1.324z"/><use xlink:href="#Q" x="-18.86" y=".552"/><path d="M255.907 187.678l-2.427-1.324-2.426 1.434 2.537 1.324z"/><use xlink:href="#R"/><use xlink:href="#O" x="-19.081" y=".772"/><use xlink:href="#R" x="6.507"/><use xlink:href="#P" x="-20.074"/><use xlink:href="#O" x="-20.294" y="-14.779"/><use xlink:href="#P" x="-27.904" y="-15.551"/><use xlink:href="#N" x="-29.889" y="-9.154"/><use xlink:href="#P" x="-34.522" y="-11.801"/><use xlink:href="#N" x="-36.617" y="-5.294"/><path d="M259.657 174.884l-2.426-1.324-2.427 1.324 2.537 1.434zm-3.199 1.875l-2.426-1.324-2.426 1.434 2.537 1.324z"/><use xlink:href="#Q" x="-24.926" y="-6.617"/><use xlink:href="#Q" x="-28.235" y="-4.632"/><use xlink:href="#Q" x="-31.654" y="-2.757"/><use xlink:href="#R" x="-7.279" y="-18.75"/><path d="M251.605 174.222l-2.426-1.434-2.426 1.434 2.537 1.434z"/><use xlink:href="#O" x="-36.286" y="-16.213"/><use xlink:href="#Q" x="-33.088" y="-7.28"/><use xlink:href="#O" x="-43.014" y="-12.353"/><use xlink:href="#P" x="-38.933" y="-25.258"/><path d="M247.084 171.575l-2.537-1.324-2.316 1.434 2.426 1.324z"/><use xlink:href="#P" x="-45.33" y="-21.507"/><use xlink:href="#P" x="-48.639" y="-19.522"/><path d="M245.318 167.163l-2.426-1.434-2.427 1.434 2.537 1.324z"/><use xlink:href="#O" x="-42.463" y="-23.272"/><use xlink:href="#N" x="-48.86" y="-19.522"/><path d="M235.613 172.787l-2.426-1.323-2.426 1.323 2.537 1.434zm-.111 5.074l-16.1-9.044-2.426 1.434 16.213 9.044z"/><use xlink:href="#N" x="-47.315" y="-26.029"/><use xlink:href="#N" x="-50.514" y="-24.154"/><use xlink:href="#O" x="-50.624" y="-24.154"/><path d="M230.76 170.031l-2.537-1.324-2.316 1.323 2.426 1.434zm4.742-8.382l-2.537-1.434-2.316 1.434 2.426 1.323z"/><use xlink:href="#R" x="-29.779" y="-27.573"/><use xlink:href="#N" x="-58.786" y="-25.036"/><use xlink:href="#P" x="-63.419" y="-27.683"/><use xlink:href="#N" x="-57.462" y="-31.544"/><use xlink:href="#O" x="-57.462" y="-31.544"/><path d="M223.922 162.641l-2.426-1.434-2.426 1.434 2.537 1.323z"/><use xlink:href="#Q" x="-57.573" y="-20.735"/><path d="M217.194 166.501l-2.537-1.434-2.316 1.434 2.537 1.324zm8.051-10.367l-2.537-1.434-2.316 1.434 2.537 1.323z"/><use xlink:href="#R" x="-40.037" y="-33.088"/><use xlink:href="#O" x="-65.845" y="-32.426"/><use xlink:href="#P" x="-73.676" y="-33.198"/><use xlink:href="#O" x="-72.573" y="-28.566"/><use xlink:href="#N" x="-67.94" y="-36.728"/><use xlink:href="#O" x="-67.94" y="-36.728"/><use xlink:href="#N" x="-74.337" y="-32.978"/><use xlink:href="#Q" x="-68.051" y="-25.919"/><path d="M206.716 161.317l-2.537-1.434-2.316 1.434 2.537 1.324z"/></g></g><path d="M122.563 130.767l12.573-40.808a3.828 3.828 0 0 1 5.515-2.206l42.242 23.161a3.81 3.81 0 0 1 1.875 4.522l-12.463 40.808a3.828 3.828 0 0 1-5.515 2.206l-42.352-23.272a3.512 3.512 0 0 1-1.875-4.411z" class="G"/><path d="M125.981 130.546l12.022-37.5a1.79 1.79 0 0 1 2.537-.993l39.926 21.948a1.623 1.623 0 0 1 .772 2.1l-11.912 37.61a1.79 1.79 0 0 1-2.537.993l-40.147-21.948a2.274 2.274 0 0 1-.662-2.206z" class="B"/><g class="G"><path d="M184.988 114.002l12.242 26.691a.75.75 0 0 1-1.1.882l-16.877-10.367c0 .11 5.735-17.206 5.735-17.206zm-18.087 67.058l-7.72-4.412c-.331-.11-.331-.551 0-.772l17.647-10.368a1 1 0 0 1 1.1 0l8.162 4.853-18.419 10.588a.68.68 0 0 1-.77.111z"/><path d="M167.453 181.939h-.331l-8.162-4.96v-.882l18.2-10.258h.221l8.6 4.522v.662l-18.528 10.916z" class="K"/></g><path d="M167.562 179.186l-5.845-3.419a.313.313 0 0 1 0-.55l15.11-8.713c.414-.221.91-.221 1.324 0l5.846 3.419c.221.11.221.441 0 .662l-15 8.6a1.63 1.63 0 0 1-1.434 0z" class="B"/><path d="M167.452 181.942l-.11.11v-.88l18.639-10.7v.551z" class="G K"/><path d="M360.022 194.736s3.529-.11 3.529 4.522-3.64 4.743-3.64 4.743" stroke="#3e3e3e" stroke-width="3.865" class="C H"/><path d="M360.574 193.303v-1.871c-.993-.772-2.316-2.1-6.618-2.1a10.96 10.96 0 0 0-6.618 2.1v13.787c.882 2.978 5.956 2.978 6.948 2.978.882 0 5.625.221 6.066-2.537-.11.11.221-11.36.221-12.353z" class="G"/><path d="M358.919 192.976c0-1.1-2.206-2.1-4.963-2.1s-4.963.882-4.963 2.1c0 .441 2.206 1.324 4.963 1.324a11.257 11.257 0 0 0 4.963-1.324z" fill="#964d36"/><path d="M353.957 188.67c-3.64 0-6.618 1.213-6.618 2.757 0 2.426 2.978 3.86 6.618 3.86s6.618-1.434 6.618-3.86c0-1.434-2.978-2.757-6.618-2.757zm0 5.625c-2.757 0-4.963-1.324-4.963-2.757 0-1.1 2.206-2.1 4.963-2.1s4.963.882 4.963 2.1c0 1.434-2.316 2.757-4.963 2.757z" class="B"/><g fill="#217597"><path d="M288.002 66.246a30.37 30.37 0 0 1 9.375 9.375 38.7 38.7 0 0 1 6.062 15.441c.215 1.35.326 2.714.331 4.081a16.29 16.29 0 0 1-.11 2.316c-.441 5.073-2.1 8.823-5.073 11.25a10.4 10.4 0 0 1-7.941 2.1 13.3 13.3 0 0 1-3.86-.993 16.85 16.85 0 0 1-3.419-1.765c-4.632-2.978-8.382-7.39-11.36-13.235a34.37 34.37 0 0 1-3.86-13.235c-.11-1.213-.11-2.426-.11-3.64v-1.217c0-.441.11-.772.11-1.213.091-1.017.314-2.018.662-2.978 1.324-4.412 3.75-7.279 7.279-8.493q4.8-1.654 10.588 1.324c.221.221 1.213.772 1.324.882zm-.662.441c-9.375-5.294-17.647-.331-18.419 11.029s6.287 24.816 15.662 30.11 17.647.331 18.419-11.029c.772-11.25-6.287-24.706-15.663-30.112zm-10.145 6.728l1.765.772a.51.51 0 0 0 .484-.091.507.507 0 0 0 .178-.46 1.16 1.16 0 0 0-.662-1.1 5.15 5.15 0 0 1-1.1-.551c-1.213-.551-2.316-1.213-3.529-1.875-.11 0-.221-.11-.331-.221 2.757-2.868 6.287-3.75 10.588-2.316 5.625 1.875 10.147 7.169 12.684 11.691a1.57 1.57 0 0 0-.662-.221 1.766 1.766 0 0 0-1.39.309 1.77 1.77 0 0 0-.71 1.235 4.81 4.81 0 0 0 .221 2.757c.221.882.551 1.765.772 2.537a18.35 18.35 0 0 1 .993 4.081 10.304 10.304 0 0 1-.331 4.191l-1.654 4.522-1.323 3.75c.001.029-.011.058-.032.078s-.049.032-.078.032l-4.191-22.831c.171.103.357.177.551.221.441.221.772.331 1.213.551.331.11.662-.11.551-.551a1.463 1.463 0 0 0-.662-1.1c-.662-.331-1.434-.662-2.1-.993a23.49 23.49 0 0 1-2.316-1.213c-.882-.551-1.875-1.1-2.757-1.654l-.993-.662c-.331-.221-.662-.11-.772.331-.032.471.175.927.551 1.213.441.331.993.662 1.434.993.11 0 .11.221.11.221.221 1.324.551 2.647.772 3.971l.993 4.743v.431l-3.971 9.816c.001.029-.011.058-.032.078s-.049.032-.078.032l-4.191-22.72zm8.932 15.772l3.75 18.419c-.441-.11-.772-.11-1.213-.221a17.29 17.29 0 0 1-3.088-1.1 19.52 19.52 0 0 1-4.853-3.419.405.405 0 0 1-.11-.331c1.765-4.522 3.529-8.934 5.515-13.345zm-8.16 10.804a32.46 32.46 0 0 1-6.838-14.117c-1.213-5.515-.662-10.147 1.213-13.787l5.625 27.9zm22.057-13.782c1.654 5.846 1.765 10.919 0 15.22-1.544 3.529-3.971 5.515-7.279 6.066.221-.441.331-.882.551-1.324l5.184-12.132a22.09 22.09 0 0 0 1.1-2.868 11.84 11.84 0 0 0 .551-3.529 6.29 6.29 0 0 1-.107-1.433zm-142.721 21.065a17.83 17.83 0 0 1 5.846 7.059 26.25 26.25 0 0 1 2.537 11.691 13.947 13.947 0 0 1-.331 3.088l-.331 1.765c-.993 3.86-2.757 6.728-5.4 8.493a9.073 9.073 0 0 1-6.287 1.654 8.63 8.63 0 0 1-2.757-.772 9.68 9.68 0 0 1-2.316-1.324 19.28 19.28 0 0 1-6.838-10.037 25.62 25.62 0 0 1-1.213-9.926 20.55 20.55 0 0 1 .441-2.757v-.331c0-.221.11-.331.11-.551a2.6 2.6 0 0 0 .221-.882 19.92 19.92 0 0 1 .882-2.316c1.544-3.309 3.86-5.515 6.618-6.4a9.114 9.114 0 0 1 7.831.993 2.89 2.89 0 0 1 .993.551zm-.662.331c-6.4-3.971-13.345-.221-15.441 8.272-2.1 8.6 1.434 18.75 7.831 22.72s13.345.331 15.441-8.272c2.1-8.493-1.434-18.639-7.831-22.72zm-8.491 5.074a5.91 5.91 0 0 0 1.213.551c.221.11.551-.11.551-.441s-.11-.772-.331-.882a2.756 2.756 0 0 1-.772-.441l-2.426-1.434c-.11 0-.11-.11-.221-.221a7.7 7.7 0 0 1 8.272-1.765c3.971 1.434 6.728 5.4 8.051 8.823-.11-.11-.331-.11-.441-.221-.772-.221-1.434.331-1.765 1.213a4.4 4.4 0 0 0-.221 2.1c.128.654.202 1.318.221 1.985a29.06 29.06 0 0 1 .221 3.088 7.23 7.23 0 0 1-.882 3.2 52.872 52.872 0 0 1-1.875 3.419c-.551.882-.993 1.875-1.544 2.757.001.029-.011.058-.032.078s-.049.032-.078.032l-.11-17.206c.11.11.331.11.441.221.221.11.551.331.772.441s.441-.11.551-.441a.86.86 0 0 0-.331-.772c-.5-.214-.98-.472-1.434-.772-.551-.331-.993-.551-1.544-.882-.662-.441-1.213-.882-1.875-1.324-.221-.11-.441-.331-.662-.441a.33.33 0 0 0-.551.221.86.86 0 0 0 .221.882c.331.221.662.551.993.772.06.06.099.137.11.221-.018.994.018 1.988.11 2.978 0 1.213.11 2.426.11 3.529a.405.405 0 0 1-.11.331l-4.3 7.39-.11.11c-.221-5.515-.221-11.25-.221-17.1zm4.633 11.911l.331 13.9c-.331-.11-.551-.11-.882-.221a9.22 9.22 0 0 1-2.206-.882 17 17 0 0 1-3.2-2.537c-.11-.11-.11-.11 0-.221l5.956-10.037zm-7.61 8.162a22.19 22.19 0 0 1-3.309-10.7 16.96 16.96 0 0 1 2.757-10.478c.331 7.169.441 14.117.551 21.176zm18.529-10.368a17.176 17.176 0 0 1-2.1 11.47 9.245 9.245 0 0 1-6.282 4.63 4.47 4.47 0 0 0 .551-.993l5.515-9.154a14.13 14.13 0 0 0 1.213-2.206 14.88 14.88 0 0 0 .882-2.647 3.26 3.26 0 0 1 .221-1.1zm12.905 48.529a1.68 1.68 0 0 1 .772 1.324 2.3 2.3 0 0 1-.772 1.654c-.11.11-.331.221-.441.331s-.221.11-.331.221a5.24 5.24 0 0 1-2.647.662 5.463 5.463 0 0 1-1.985-.221l-.662-.331c-.221-.11-.331-.221-.551-.331a1.69 1.69 0 0 1-.662-1.765 3.1 3.1 0 0 1 .882-1.324c.11-.11.331-.221.441-.331.029.001.058-.011.078-.032s.032-.049.032-.078c.11 0 .11-.11.221-.11.221-.11.331-.11.551-.221a5.78 5.78 0 0 1 2.757-.331 5.215 5.215 0 0 1 2.1.662l.221.221zm-.221 0a5.267 5.267 0 0 0-5.4 0c-1.654.882-1.985 2.426-.551 3.419a5.267 5.267 0 0 0 5.4 0c1.654-.992 1.875-2.426.551-3.419zm-3.089 0c.084.011.161.05.221.11h.221c.11 0 .11-.11 0-.11s-.11-.11-.221-.11c-.221-.11-.331-.221-.551-.331a5.17 5.17 0 0 1 2.647.331 1.74 1.74 0 0 1 1.213 1.654c-.029.001-.058-.011-.078-.032s-.032-.049-.032-.078a.7.7 0 0 0-.662 0c-.11.11-.221.11-.331.221a.34.34 0 0 0-.11.221 1.54 1.54 0 0 0-.331.441l-.662.331-.993.331c-.221.11-.551.11-.772.221.662-.772 1.434-1.434 2.1-2.206h.11c.11 0 .11.11.221.11h.221c.11 0 0-.11 0-.11-.11-.11-.221-.11-.331-.221s-.221-.11-.331-.221l-.331-.331-.11-.11h-.221c-.11 0-.11.11 0 .11s.11.11.221.11l-.331.331-.441.441h-.11l-2.206.662a9.12 9.12 0 0 0 1.985-1.765z"/><path d="M173.187 172.788l-1.654 1.765c-.11 0-.11 0-.221-.11-.221-.11-.331-.11-.551-.221a1.33 1.33 0 0 1-.551-.551 30.538 30.538 0 0 1 2.978-.882zm-3.198.441a1.254 1.254 0 0 1 .441-1.544 3.824 3.824 0 0 1 2.1-1.1l-2.537 2.647zm6.618 0a4.49 4.49 0 0 1-1.985 1.324 6.01 6.01 0 0 1-2.426.11.405.405 0 0 0 .331-.11l2.757-.772c.221-.11.441-.11.662-.221s.441-.11.551-.221c-.11 0 0-.11.11-.11z"/></g><path d="M113.298 272.276l14.89 8.162a10.548 10.548 0 0 0 9.926 0l35.845-21.176a4.6 4.6 0 0 0 .221-7.831l-30.662-18.755-30.11 22.72v16.88z" class="D"/><path d="M123.556 266.426l-38.713-22.5v9.6a3.52 3.52 0 0 0 1.765 3.088l33.86 19.632a5.974 5.974 0 0 0 6.066 0l33.2-19.412a5.01 5.01 0 0 0 2.537-4.3v-8.498l-38.715 22.39z" fill="#ea4335"/><path d="M123.555 266.425v10.7a5.846 5.846 0 0 0 2.978-.882l33.2-19.411a5.01 5.01 0 0 0 2.537-4.3v-8.496z" fill="#a54335"/><path d="M86.056 245.69l35.184 20.074a4.385 4.385 0 0 0 4.632 0l35.183-19.738a2.39 2.39 0 0 0 0-4.191l-32.647-19.081a9.76 9.76 0 0 0-9.816 0l-32.536 18.75a2.39 2.39 0 0 0 0 4.191z" class="B"/><g clip-path="url(#H)" transform="translate(100.173 227.713)"><path d="M34.967 7.831a20.07 20.07 0 0 0-11.581-2.316 20.754 20.754 0 0 0-6.507 1.434c.11 0 .11 0 .221.11a15.29 15.29 0 0 1 5.515 1.654c.48.276.924.61 1.324.993h.11a11.3 11.3 0 0 1 6.287 1.324 4.53 4.53 0 0 1 2.421 2.978h.11v-.11l6.507-.221h.11c-.221-2.316-1.985-4.3-4.522-5.845" fill="#ea4335"/><path d="M39.595 13.676l-6.618.221v.11c.221 1.544-.662 3.088-2.426 4.191l-.551.331c1.654.993 1.654 2.537.11 3.64a6.426 6.426 0 0 1-5.846.221l-5.956-3.419-4.632 2.978 5.956 3.419c4.3 2.426 11.029 2.316 15.22-.441 2.537-1.654 3.64-3.86 2.868-6.066a6.5 6.5 0 0 0 1.875-5.184" fill="#4285f4"/><path d="M11.36 14.559l-6.728.221a6.072 6.072 0 0 0 3.088 3.64l5.956 3.419 4.632-2.98-5.956-3.419a2.6 2.6 0 0 1-.993-.882" fill="#34a853"/><path d="M22.72 8.602a14.642 14.642 0 0 0-5.515-1.654 16.355 16.355 0 0 0-9.816 2.1c-2.316 1.544-3.419 3.64-2.868 5.625l6.728-.221c-.882-1.323.221-2.757 2.316-3.309a5.94 5.94 0 0 1 4.412.441 2.6 2.6 0 0 1 .993.882 1.49 1.49 0 0 1 0 1.765l6.838-.221a4.63 4.63 0 0 0-1.875-4.522 6.94 6.94 0 0 0-1.213-.882" fill="#fbbc05"/></g></svg>